<svg xmlns="http://www.w3.org/2000/svg" viewBox="0 0 420 96" role="img" aria-labelledby="title desc">
<title>Dấu Việt Global — Horizontal Logo Dark Outlined V1.3.1</title>
<desc>Final distribution QA candidate. Canonical Time Trace geometry preserved; DẤU VIỆT GLOBAL wordmark converted to vector outlines.</desc>
<defs>
  <mask id="journey-cut" maskUnits="userSpaceOnUse" x="0" y="0" width="64" height="64">
    <rect width="64" height="64" fill="white"/>
    <!-- Journey: single continuous negative-space path, bottom-to-reveal. -->
    <path d="M18.8 53.8
             C23.9 49.2 28.4 45.2 29.3 41.2
             C30.2 37.3 28.0 34.1 24.3 31.4
             C29.1 28.9 34.0 27.7 38.2 27.4
             C42.7 27.1 45.7 25.4 47.4 22.4"
          fill="none" stroke="black" stroke-width="3.2"
          stroke-linecap="round" stroke-linejoin="round"/>
    <!-- Reveal: lens-like opening; no pin/star/notch icon. -->
    <path d="M45.7 19.3
             C48.0 18.9 50.6 19.7 52.1 21.4
             C50.2 22.0 48.5 23.0 47.1 24.6
             C46.2 23.1 45.7 21.2 45.7 19.3 Z" fill="black"/>
  </mask>
</defs>
<g transform="translate(16 16)"><g mask="url(#journey-cut)">
  <!-- TIME 01: upper layer -->
  <path fill="#D4AF7C" d="M21.8 11.3
    C27.4 8.5 34.6 8.3 40.9 10.1
    C44.7 11.2 47.8 13.1 50.1 15.6
    C47.4 16.3 44.8 17.3 42.4 18.6
    C39.2 16.9 35.8 16.1 32.2 16.3
    C28.0 16.5 24.4 17.7 21.4 19.5
    C20.1 17.1 20.2 13.9 21.8 11.3 Z"/>

  <!-- TIME 02: middle layer, tapered on the right to remove visual heaviness -->
  <path fill="#18463C" d="M14.3 22.5
    C19.1 18.8 25.0 17.1 31.1 17.5
    C36.1 17.8 40.8 19.3 44.6 21.8
    C42.4 23.3 40.4 24.9 38.5 26.6
    C35.7 25.2 32.7 24.5 29.5 24.5
    C25.1 24.5 21.2 25.8 17.9 28.2
    C16.1 26.8 14.9 24.9 14.3 22.5 Z"/>

  <!-- TIME 03: lower layer, one continuous asymmetric body -->
  <path fill="#EADDC7" d="M15.0 29.6
    C19.0 27.0 23.6 25.7 28.2 25.7
    C31.4 25.7 34.2 26.1 36.9 27.0
    C34.2 29.2 31.8 31.7 29.9 34.4
    C27.7 37.5 26.6 40.3 27.0 42.8
    C27.5 46.0 30.4 48.0 34.8 48.9
    C39.4 49.8 43.4 51.4 46.4 54.0
    C43.0 57.2 38.7 59.0 34.0 59.0
    C27.0 59.0 20.7 55.8 16.8 50.6
    C12.8 45.2 12.2 36.6 15.0 29.6 Z"/>

  <!-- right return of lower layer: narrower, softer, optically balanced -->
  <path fill="#18463C" d="M44.8 24.9
    C48.3 26.0 51.0 28.2 52.8 31.2
    C55.0 34.9 55.3 39.6 53.7 43.8
    C52.8 46.2 51.5 48.3 49.7 50.0
    C48.4 47.1 46.2 44.9 43.0 43.5
    C40.6 42.4 37.8 41.7 34.8 41.3
    C34.2 39.5 34.7 37.5 36.2 35.4
    C38.4 32.4 41.3 29.9 44.9 27.9
    C45.0 26.9 45.0 25.9 44.8 24.9 Z"/>
</g></g>

<!-- OUTLINED WORDMARK: generated from NotoSerif-SemiBold.ttf / NotoSans-SemiBold.ttf -->
<g id="wordmark-outlined" aria-label="DẤU VIỆT GLOBAL">
<path class="wordmark-primary-outline" fill="#FFFFFF" d="M32 0V49H63Q89 49 107.5 60.5Q126 72 126 116V602Q126 643 107.0 654.0Q88 665 63 665H32V714H353Q514 714 605.0 625.0Q696 536 696 365Q696 256 657.5 173.5Q619 91 542.5 45.5Q466 0 353 0ZM330 58Q439 58 494.0 139.0Q549 220 549 365Q549 657 331 657H262V58Z" transform="translate(96.0000 49.0000) scale(0.03100000 -0.03100000)"/>
<path class="wordmark-primary-outline" fill="#FFFFFF" d="M484 879Q499 899 516.0 926.5Q533 954 543 977H634V965Q626 953 606.5 934.0Q587 915 564.5 896.5Q542 878 523 866H484ZM204 784Q232 811 261.5 845.0Q291 879 310 911H430Q449 879 478.5 845.0Q508 811 536 784V771H478Q455 787 424.0 811.0Q393 835 370 856Q347 835 316.0 811.0Q285 787 261 771H204ZM2 0V49H17Q45 49 62.0 63.5Q79 78 96 124L315 714H429L645 114Q658 76 675.5 62.5Q693 49 719 49H735V0H426V49H459Q479 49 493.5 59.0Q508 69 508 91Q508 102 505.5 112.5Q503 123 499 132L463 237H212L180 143Q175 131 172.0 116.5Q169 102 169 92Q169 70 183.5 59.5Q198 49 222 49H256V0ZM232 293H443L387 462Q374 499 361.5 540.0Q349 581 341 616Q333 583 321.0 545.0Q309 507 295 468Z" transform="translate(119.0020 49.0000) scale(0.03100000 -0.03100000)"/>
<path class="wordmark-primary-outline" fill="#FFFFFF" d="M378 -10Q252 -10 181.0 42.5Q110 95 110 217V602Q110 643 91.0 654.0Q72 665 47 665H16V714H340V665H309Q283 665 264.5 653.5Q246 642 246 598V210Q246 125 289.0 91.0Q332 57 402 57Q476 57 516.0 95.5Q556 134 556 207V602Q556 643 537.5 654.0Q519 665 493 665H462V714H720V665H688Q663 665 644.5 653.5Q626 642 626 598V205Q626 105 565.0 47.5Q504 -10 378 -10Z" transform="translate(141.4770 49.0000) scale(0.03100000 -0.03100000)"/>
<path class="wordmark-primary-outline" fill="#FFFFFF" d="" transform="translate(163.9830 49.0000) scale(0.03100000 -0.03100000)"/>
<path class="wordmark-primary-outline" fill="#FFFFFF" d="M85 615Q75 645 57.5 655.0Q40 665 19 665H0V714H309V665H272Q252 665 238.5 656.5Q225 648 225 626Q225 617 227.5 606.0Q230 595 234 586L339 271Q349 241 359.0 202.0Q369 163 374 132Q379 161 389.0 198.0Q399 235 411 269L517 579Q520 590 523.5 603.5Q527 617 527 625Q527 665 478 665H437V714H689V665H652Q633 665 621.5 651.0Q610 637 594 590L389 0H299Z" transform="translate(171.7330 49.0000) scale(0.03100000 -0.03100000)"/>
<path class="wordmark-primary-outline" fill="#FFFFFF" d="M32 0V49H63Q89 49 107.5 60.5Q126 72 126 116V598Q126 642 107.5 653.5Q89 665 63 665H32V714H356V665H325Q299 665 281.0 653.5Q263 642 263 598V116Q263 72 281.0 60.5Q299 49 325 49H356V0Z" transform="translate(192.7820 49.0000) scale(0.03100000 -0.03100000)"/>
<path class="wordmark-primary-outline" fill="#FFFFFF" d="M32 0V49H63Q88 49 107.0 59.5Q126 70 126 111V598Q126 642 107.5 653.5Q89 665 63 665H32V714H567L572 533H509L504 579Q500 614 483.5 635.5Q467 657 431 657H263V401H501V345H263V57H460Q496 57 513.0 79.5Q530 102 536 135L543 181H606L599 0ZM152 784Q168 803 188.5 829.0Q209 855 228.5 882.0Q248 909 258 931H378Q389 909 408.0 882.0Q427 855 448.0 829.0Q469 803 484 784V771H427Q403 788 371.5 813.5Q340 839 318 861Q295 839 264.0 813.5Q233 788 210 771H152ZM321 -195Q290 -195 268.5 -179.0Q247 -163 247 -127Q247 -90 268.5 -74.5Q290 -59 321 -59Q351 -59 373.5 -74.5Q396 -90 396 -127Q396 -163 373.5 -179.0Q351 -195 321 -195Z" transform="translate(204.5000 49.0000) scale(0.03100000 -0.03100000)"/>
<path class="wordmark-primary-outline" fill="#FFFFFF" d="M152 0V49H187Q213 49 231.5 60.0Q250 71 250 115V657H164Q119 657 102.0 636.0Q85 615 81 582L75 527H14L19 714H619L624 527H563L556 582Q553 615 535.5 636.0Q518 657 473 657H387V116Q387 72 405.0 60.5Q423 49 450 49H485V0Z" transform="translate(224.0920 49.0000) scale(0.03100000 -0.03100000)"/>
<path class="wordmark-global-outline" fill="#EADDC7" d="M378 392H648V29Q591 11 531.0 0.5Q471 -10 395 -10Q233 -10 146.0 86.0Q59 182 59 358Q59 469 102.5 551.5Q146 634 229.0 679.0Q312 724 431 724Q489 724 543.5 712.0Q598 700 643 681L599 576Q564 592 520.0 604.0Q476 616 428 616Q355 616 302.0 584.0Q249 552 220.5 493.5Q192 435 192 356Q192 280 214.0 222.0Q236 164 284.0 131.0Q332 98 409 98Q447 98 473.0 102.0Q499 106 522 111V283H378Z" transform="translate(98.0000 69.0000) scale(0.01100000 -0.01100000)"/>
<path class="wordmark-global-outline" fill="#EADDC7" d="M93 0V714H221V108H519V0Z" transform="translate(109.0660 69.0000) scale(0.01100000 -0.01100000)"/>
<path class="wordmark-global-outline" fill="#EADDC7" d="M731 358Q731 247 694.5 164.5Q658 82 583.0 36.0Q508 -10 395 -10Q281 -10 206.5 36.0Q132 82 95.5 165.0Q59 248 59 359Q59 469 95.5 551.5Q132 634 206.5 679.5Q281 725 396 725Q509 725 583.5 679.5Q658 634 694.5 551.5Q731 469 731 358ZM194 358Q194 237 242.0 168.0Q290 99 395 99Q501 99 548.5 168.0Q596 237 596 358Q596 479 549.0 548.0Q502 617 396 617Q291 617 242.5 548.0Q194 479 194 358Z" transform="translate(118.1960 69.0000) scale(0.01100000 -0.01100000)"/>
<path class="wordmark-global-outline" fill="#EADDC7" d="M308 714Q447 714 518.5 674.0Q590 634 590 535Q590 473 559.0 431.0Q528 389 470 379V374Q509 367 541.0 348.5Q573 330 591.5 295.5Q610 261 610 205Q610 108 541.5 54.0Q473 0 354 0H93V714ZM325 423Q401 423 429.5 447.0Q458 471 458 518Q458 566 423.5 587.0Q389 608 315 608H221V423ZM221 320V107H337Q415 107 445.5 137.0Q476 167 476 217Q476 263 444.5 291.5Q413 320 331 320Z" transform="translate(129.9660 69.0000) scale(0.01100000 -0.01100000)"/>
<path class="wordmark-global-outline" fill="#EADDC7" d="M534 0 469 189H200L136 0H0L262 717H408L670 0ZM374 483Q370 497 362.0 521.0Q354 545 346.5 570.5Q339 596 335 613Q330 593 322.5 567.0Q315 541 308.0 518.0Q301 495 298 483L235 299H436Z" transform="translate(140.3500 69.0000) scale(0.01100000 -0.01100000)"/>
<path class="wordmark-global-outline" fill="#EADDC7" d="M93 0V714H221V108H519V0Z" transform="translate(150.8110 69.0000) scale(0.01100000 -0.01100000)"/>
</g>
</svg>